<svg xmlns="http://www.w3.org/2000/svg" viewBox="0 0 94.55 113.34"><defs><style>.cls-1{fill:#2f76bc;}</style></defs><g id="图层_2" data-name="图层 2"><g id="图层_1-2" data-name="图层 1"><path class="cls-1" d="M67.76,97.6l2.25.76c-1.85,1.65-1.91,3.16-.76,6.18,1,2.66,1.27,4.44.55,5.63-.51.82-2,1.26-5,2.06a22.88,22.88,0,0,1-6.14,1.11c-2.05,0-4.53,0-5.16-1.29-.53-1.13,2.5-5.88,2.62-6,2.33-2.6,5.28-3.74,8.31-5.82A23.92,23.92,0,0,0,67.76,97.6Z"/><path class="cls-1" d="M54.24,30.1c0,5.43-1.7,8.76-4.55,8.76-3.13,0-10.34-5.5-9.21-7.11a28.81,28.81,0,0,1,8.62-7.7C50.87,23,54.23,27.19,54.24,30.1Z"/><path class="cls-1" d="M39.84,69.25l12.71-12.1C48.82,57.29,40.25,66.1,39.84,69.25Zm6.1,19.24c2.36-.33,4.25-.72,4.68-.84a67.83,67.83,0,0,1,10.55-1.48,10.22,10.22,0,0,0-2.6-.34,11.93,11.93,0,0,0-2.32.26c-4.13.5-7.45,1.06-10.06,1.26-3.68.29-6.19-.1-6.2.26s2.59,1,5.23.92A5.29,5.29,0,0,0,45.94,88.49Zm1.5.35c-6.12,1.39-11.34-.13-16.06-3.49-4.34-3.09-4.8-12.24-1.1-17.13a49.36,49.36,0,0,1,7-7.7c2.81-2.41,4.74-4.14,6.77-5.76,9.44-7.52,14.16-11.28,18.32-15.29,3.35-3.22,4.75-4.92,8.18-7.21a40.63,40.63,0,0,1,8.63-4.37L73,37.4c5.33,8,9.67,17.41,20.77,19.94a7.8,7.8,0,0,1,.74,3.24c0,.83,0,2.77-1.07,3.74s-2.62.68-5.77-.24c-7.32-2.12-7-2.86-10.09-3.61C74.36,59.67,71,59.5,68,62c-.66.54-2,.25-3,.34-1.45-.09-1.85-.38-1.92-.64-.32-1.24,5.64-4.66,12.1-5.15a21.92,21.92,0,0,1,2.75,0c-.24-5.1-6-8.65-11.33-6.12s-10.31,6.1-15.16,9.6a54.51,54.51,0,0,0-8.63,7.94,18.81,18.81,0,0,0-4.24,7c-1.39,4.8,2.47,7.93,7.3,6.9,6.88-1.45,13.87-2.37,20.81-3.54a20.71,20.71,0,0,0,3.68-.85,7.68,7.68,0,0,1,10.5,7.12,11.31,11.31,0,0,1-5.19,10.06c-1.26.84-2.55,1.62-3.81,2.44A15.5,15.5,0,0,0,70,98.36l-2.25-.76a9.29,9.29,0,0,0,2.46-3.91c.16-.53,1.11-3.62-.49-5.53a5,5,0,0,0-4.09-1.55A108.93,108.93,0,0,0,47.44,88.84Z"/><path class="cls-1" d="M28.51,31.33c2.08.63,3.16,5.13,2.39,8.74-.71,3.32-2.56,3.92-7,9.35a84.51,84.51,0,0,0-6.83,10,92.64,92.64,0,0,0-6,11C8.05,77.16,6.17,81.3,6.13,87c0,3.8,0,9.11,3.45,12.58A33.88,33.88,0,0,0,18,105.46c1.13.52,3.48,1.43,3.88,3.38a4.09,4.09,0,0,1-.17,2.2c-.29.85-1.66,1.33-2,1.57-1.79,0-9.52-.35-14.87-6.3C.74,101.71.37,96.32.08,92.15-.61,82.21,3.37,74.42,6,69.24a76.46,76.46,0,0,1,8.1-12.48c3.1-3.85,5.51-7.23,10.32-14,1.16-1.62,2.22-3.15,2.23-5.23,0-2.51-1.54-4.14-.65-5.4A2.42,2.42,0,0,1,28.51,31.33Z"/><path class="cls-1" d="M16.94,19.51c1-1.33,5.95,2.09,13,3.3a20,20,0,0,0,9,.19c4.24-1.05,8.24-3.06,12.41-4.68a47.57,47.57,0,0,1-.24-5.45c0-2.19.21-3.42-.51-4.95a4.24,4.24,0,0,0-1.94-2.24c-1.52-.69-3.61,0-5.26,1.61-3.16,2.32-3.73,3.91-3.56,5s1,1.7,1.19,3.56A3.3,3.3,0,0,1,40.82,18c-.93,1.53-4.24,1.75-6.26.37a6,6,0,0,1-2.28-4.11C31.52,4.93,41.79-2.5,50.59.79c3.75,1.41,4.26,4.63,4.47,7.93.17,2.63,0,5.27,0,8.29a18.13,18.13,0,0,1,3.21-.15c2.28.09,4.86.2,6.82,1.94a7.72,7.72,0,0,1,2.36,4.79c.36.57.48.91.37,1q-.39.41-4.7-3.06a12.82,12.82,0,0,0-5-1.32,11,11,0,0,0-4.59.59c-3.13,1.22-6.24,2.53-9.35,3.82-8.57,3.55-17,3-25.19-1.15-1-.5-1.48-2-2.21-3A1.14,1.14,0,0,1,16.94,19.51Z"/></g></g></svg>